<svg xmlns="http://www.w3.org/2000/svg" viewBox="0 0 14.53 15.51"><defs><style>.cls-1{fill:lime;}</style></defs><g id="Capa_2" data-name="Capa 2"><g id="Capa_1-2" data-name="Capa 1"><g id="Capa_2-2" data-name="Capa 2"><g id="Contenido"><path class="cls-1" d="M14.53,5.43h-.35v.26h-.71V6h-.71V6.2H12.4V6h-.35V5.69H10.63V6H9.57V6.2H9.21v.26H8.86V7H8.51v.26H7.08V7.5H6.73v.25H8.15V9.3H7.79v2H7.44v1.81H7.08v.26h.36v.77h.35v.26h.36V15H9.21v-.52H8.5v-.51H8.15v-.52H7.79v-.26h.36v-1H8.5v.77h.36v.52h.35v.26h.35v.26h.36v.25h.71v.26h1.42v-.26h.35v-.25h.35v-.26H12.4v-.26h-.35v-.26h-.36V12.9H11v.52h.71v.26h.35v.26H11.7v.25h-.36v-.25h-.71v-.26H9.92v-.26H9.57V12.9H9.21v-.77H8.86V10.32h.35V9.81h.36V8.26H9.21V7h.36V6.71h.35V6.45h.71V6.19H11.7v.26h.35v.26H11.7v.52H10.63v.51h-.35v.52h.35v.26H11v.25h.35v.52H12.4V9h.36V8.76h.35V6.43h.36V6.18h1.06m-6,3.63V9h.35v.79Zm4.25-2.07v.78H12.4v.25h-.71V8.52h-.36V8.26H11V7.74H12.4V7.49h-.35V7.23h.35v.26h.36Z"/><path class="cls-1" d="M5.32,15.51v-.28H5v-.52h.36V13.42H5V9.29H4.61V7.23H4.25V7h.36V6.45h.71v.26H6.38V6.45h.35V6.19h.35v-1H6.73v.78H6.38v.25H5.32V5.94H5V5.42h.36V5.16H5V3.87H4.61V3.36H4.25V2.84H3.9V2.58H3.54V2.33H3.18V1.55H2.83V1H2.48V.52H2.13V.26H1.77V0H.71V.26H.35V.52H0V1.81H.35v-1H.71V.52H1.77V.77h.36v.52h.36v.52h.35v.52H1.42v.26H1.06v.25H.71v.52h.35V3.1H2.13V2.84H3.18v1.3h.36v.77H3.9v.77h.35v.78H3.9V5.94H3.54V5.42H3.18V6.2h.36v.52H3.9V7H3.18v.26h-.7v.26H2.13V7.23H1.42V7H1.06V6.46H.71V6.2H2.48V5.94H2.13v-1h.36v.26h.35v.25h.34V4.91H2.83V4.66H1.77v1H.71V6H.35v.77H.71v.52h.35V7.5h.71v.25H2.83V7.5H3.9v.77h.35V9.56h.36v5.95M4.25,3.87v.26h.36V5.42H4.25v-1H3.9V3.61h.35Z"/><rect class="cls-1" x="1.06" y="3.36" width="0.35" height="0.26"/></g></g></g></g></svg>